<svg xmlns="http://www.w3.org/2000/svg" width="60" height="60" viewBox="0 0 480 480"><path fill="#d6f4fc" d="M448,21.5H32c-13.255,0-24,10.745-24,24v301c0,13.255,10.745,24,24,24h178.1l-16.1,88h92l-16.1-88	H448c13.252,0,24-10.76,24-24v-301C472,32.245,461.255,21.5,448,21.5z"/><path fill="#e8f8fc" d="M472,45.5v2c0,13.255-10.745,24-24,24H343c-151.878,0-275,123.122-275,275c0,13.255-10.745,24-24,24	H32c-13.255,0-24-10.745-24-24v-301c0-13.255,10.745-24,24-24h416C461.255,21.5,472,32.245,472,45.5z"/><path fill="#fe4f60" d="M177,173.5v14c0,4.42-3.58,8-8,8H79c-4.42,0-8-3.58-8-8v-14c0-13.25,10.75-24,24-24h12.49	C95.91,143.51,88,131.43,88,117.5v-10c0-19.88,16.12-36,36-36c19.891,0,36,16.119,36,36v10c0,13.93-7.91,26.01-19.49,32H153	C166.252,149.5,177,160.26,177,173.5z"/><path fill="#ffebd2" d="M124,153.5c-19.881,0-36-16.117-36-36v-10c0-19.88,16.12-36,36-36c19.891,0,36,16.119,36,36v10	C160,137.381,143.884,153.5,124,153.5z"/><path fill="#ff6d7a" d="M95,149.5c2.157,0,2.957,2.872,1.085,3.943C90.492,156.645,85,162.515,85,173.5v22h-6	c-4.418,0-8-3.582-8-8v-14C71,160.245,81.745,149.5,95,149.5z"/><path fill="#fff3e4" d="M108,117.5c0,10.902-0.011,10.487,0.031,11.497c0.382,9.337-12.145,12.854-16.299,4.482	C87.287,124.52,88,117.755,88,107.5c0-18.932,13.515-32.202,29.228-35.306c9.104-1.799,14.088,10.329,6.443,15.59	C114.308,94.227,108,105.03,108,117.5z"/><path fill="#befa91" d="M409,173.5v14c0,4.42-3.58,8-8,8h-90c-4.42,0-8-3.58-8-8v-14c0-13.25,10.75-24,24-24h12.49	c-11.58-5.99-19.49-18.07-19.49-32v-10c0-19.88,16.12-36,36-36c19.891,0,36,16.119,36,36v10c0,13.93-7.91,26.01-19.49,32H385	C398.252,149.5,409,160.26,409,173.5z"/><path fill="#ffebd2" d="M356,153.5c-19.881,0-36-16.117-36-36v-10c0-19.88,16.12-36,36-36c19.891,0,36,16.119,36,36v10	C392,137.381,375.884,153.5,356,153.5z"/><path fill="#d0ffad" d="M328.085,153.443C322.492,156.645,317,162.515,317,173.5v22h-6c-4.418,0-8-3.582-8-8v-14	c0-13.255,10.745-24,24-24C329.157,149.5,329.957,152.372,328.085,153.443z"/><path fill="#fff3e4" d="M340,117.5c0,10.902-0.011,10.487,0.031,11.497c0.382,9.337-12.145,12.854-16.299,4.482	c-4.445-8.96-3.732-15.725-3.732-25.98c0-18.932,13.514-32.202,29.228-35.306c9.104-1.799,14.088,10.329,6.443,15.59	C346.308,94.227,340,105.03,340,117.5z"/><path fill="#42434d" d="M409,348.5v14c0,4.42-3.58,8-8,8h-90c-4.42,0-8-3.58-8-8v-14c0-13.25,10.75-24,24-24h12.49	c-11.58-5.99-19.49-18.07-19.49-32v-10c0-19.88,16.12-36,36-36c19.891,0,36,16.119,36,36v10c0,13.93-7.91,26.01-19.49,32H385	C398.252,324.5,409,335.26,409,348.5z"/><path fill="#ffebd2" d="M356,328.5c-19.881,0-36-16.117-36-36v-10c0-19.88,16.12-36,36-36c19.891,0,36,16.119,36,36v10	C392,312.381,375.884,328.5,356,328.5z"/><path fill="#585966" d="M328.085,328.443C322.492,331.645,317,337.515,317,348.5v22h-6c-4.418,0-8-3.582-8-8v-14	c0-13.255,10.745-24,24-24C329.157,324.5,329.957,327.372,328.085,328.443z"/><path fill="#fff3e4" d="M340,292.5c0,10.902-0.011,10.487,0.031,11.497c0.382,9.337-12.145,12.854-16.299,4.482	c-4.445-8.96-3.732-15.725-3.732-25.98c0-18.932,13.514-32.202,29.228-35.306c9.104-1.799,14.088,10.329,6.443,15.59	C346.308,269.227,340,280.03,340,292.5z"/><path fill="#ffe773" d="M177,348.5v14c0,4.42-3.58,8-8,8H79c-4.42,0-8-3.58-8-8v-14c0-13.25,10.75-24,24-24h12.49	C95.91,318.51,88,306.43,88,292.5v-10c0-19.88,16.12-36,36-36c19.891,0,36,16.119,36,36v10c0,13.93-7.91,26.01-19.49,32H153	C166.252,324.5,177,335.26,177,348.5z"/><path fill="#ffebd2" d="M124,328.5c-19.881,0-36-16.117-36-36v-10c0-19.88,16.12-36,36-36c19.891,0,36,16.119,36,36v10	C160,312.381,143.884,328.5,124,328.5z"/><path fill="#fff0a6" d="M96.085,328.443C90.492,331.645,85,337.515,85,348.5v22h-6c-4.418,0-8-3.582-8-8v-14	c0-13.255,10.745-24,24-24C97.157,324.5,97.957,327.372,96.085,328.443z"/><path fill="#fff3e4" d="M108,292.5c0,10.902-0.011,10.487,0.031,11.497c0.382,9.337-12.145,12.854-16.299,4.482	C87.287,299.52,88,292.755,88,282.5c0-18.932,13.515-32.202,29.228-35.306c9.104-1.799,14.088,10.329,6.443,15.59	C114.308,269.227,108,280.03,108,292.5z"/><polygon fill="#bdeffc" points="275.85 403 204.15 403 210.1 370.5 269.9 370.5"/><path d="M448,13.5H291c-4.418,0-8,3.582-8,8s3.582,8,8,8h157c8.822,0,16,7.177,16,16v301c0,8.823-7.178,16-16,16h-31v-14	c0-4.418-3.582-8-8-8s-8,3.582-8,8v14h-90v-14c0-8.823,7.178-16,16-16h10.704c29.034,13.334,62.296-8.014,62.296-40v-10	c0-24.262-19.738-44-44-44s-44,19.738-44,44c0,11.2-1.04,22.105,7.712,34.847C305.569,320.656,295,333.363,295,348.5v14H185v-14	c0-4.418-3.582-8-8-8s-8,3.582-8,8v14H79v-14c0-8.823,7.178-16,16-16h10.704c29.034,13.334,62.296-8.014,62.296-40v-10	c0-24.262-19.738-44-44-44s-44,19.738-44,44c0,11.2-1.04,22.105,7.712,34.847C73.569,320.656,63,333.363,63,348.5v14H32	c-8.822,0-16-7.177-16-16v-143c9.942,0,205.997,0,216,0v117c0,4.418,3.582,8,8,8s8-3.582,8-8v-117c5.906,0,153.093,0,161,0	c4.418,0,8-3.582,8-8v-22c0-4.418-3.582-8-8-8s-8,3.582-8,8v14h-90v-14c0-8.823,7.178-16,16-16h10.704	c29.034,13.334,62.296-8.014,62.296-40v-10c0-24.262-19.738-44-44-44s-44,19.738-44,44c0,11.2-1.04,22.105,7.712,34.847	C305.569,145.656,295,158.363,295,173.5v14h-47v-166c0-4.418-3.582-8-8-8H32c-17.645,0-32,14.355-32,32v99c0,4.418,3.582,8,8,8	s8-3.582,8-8v-99c0-8.823,7.178-16,16-16h200v158h-47v-14c0-4.418-3.582-8-8-8s-8,3.582-8,8v14H79v-14c0-8.823,7.178-16,16-16	h10.704c29.034,13.334,62.296-8.014,62.296-40v-10c0-24.262-19.738-44-44-44s-44,19.738-44,44c0,11.2-1.04,22.105,7.712,34.847	C73.569,145.656,63,158.363,63,173.5v14H8c-4.418,0-8,3.582-8,8v151c0,17.645,14.355,32,32,32c16.345,0,399.065,0,416,0	c17.645,0,32-14.355,32-32v-301C480,27.855,465.645,13.5,448,13.5z M328,282.5c0-15.439,12.561-28,28-28s28,12.561,28,28v10	c0,20.041-20.598,33.68-39.05,25.723c-0.834-0.659-1.803-1.152-2.858-1.437C333.68,311.95,328,302.879,328,292.5V282.5z M96,282.5	c0-15.439,12.561-28,28-28s28,12.561,28,28v10c0,20.041-20.598,33.68-39.05,25.723c-0.834-0.659-1.803-1.152-2.858-1.437	C101.68,311.95,96,302.879,96,292.5V282.5z M328,107.5c0-15.439,12.561-28,28-28s28,12.561,28,28v10	c0,20.041-20.598,33.68-39.05,25.723c-0.834-0.659-1.803-1.152-2.858-1.437C333.68,136.95,328,127.879,328,117.5V107.5z M96,107.5	c0-15.439,12.561-28,28-28s28,12.561,28,28v10c0,20.041-20.598,33.68-39.05,25.723c-0.834-0.659-1.803-1.152-2.858-1.437	C101.68,136.95,96,127.879,96,117.5V107.5z M339,458.5c0,4.418-3.582,8-8,8c-110.553,0-87.838,0-182,0c-4.418,0-8-3.582-8-8	s3.582-8,8-8h38.331l9.166-50.097c0.795-4.346,4.966-7.225,9.309-6.429c4.346,0.795,7.225,4.963,6.429,9.309l-8.639,47.217h72.807	l-8.639-47.217c-0.795-4.346,2.083-8.514,6.429-9.309c4.352-0.795,8.514,2.083,9.309,6.429l9.166,50.097H331	C335.418,450.5,339,454.082,339,458.5z"/></svg>