<svg xmlns="http://www.w3.org/2000/svg" width="48" height="48" viewBox="0 0 48 48"><path fill="#EF6C00" d="M12,32v10H9V32H12z M36,32v10h3V32H36z"/><path fill="#FFA000" d="M43,34H5v-5h38V34z"/><path fill="#673AB7" d="M9 6H15V29H9z"/><path fill="#4527A0" d="M9 6H11V29H9z"/><path fill="#4CAF50" d="M17 6H23V29H17z"/><path fill="#388E3C" d="M17 6H19V29H17z"/><path fill="#F44336" d="M23 12H29V29H23z"/><path fill="#D32F2F" d="M23 12H25V29H23z"/><path fill="#9575CD" d="M15,11H9V9h6V11z M15,24H9v2h6V24z"/><path fill="#7E57C2" d="M11,11H9V9h2V11z M11,24H9v2h2V24z"/><path fill="#81C784" d="M23,11h-6V9h6V11z M23,24h-6v2h6V24z"/><path fill="#4CAF50" d="M19,11h-2V9h2V11z M19,24h-2v2h2V24z"/><path fill="#FF8A80" d="M29,17h-6v-2h6V17z M29,24h-6v2h6V24z"/><path fill="#FF5252" d="M25,17h-2v-2h2V17z M25,24h-2v2h2V24z"/><path fill="#00BCD4" d="M40 27L34 29 29 13 35 11z"/><path fill="#0097A7" d="M30.974 12.342L29 13 34 29 35.976 28.341z"/><path fill="#4DD0E1" d="M33.119,26.181l-0.599-1.917l5.987-2.041l0.599,1.917L33.119,26.181z M29.823,15.633l0.599,1.917l5.975-2.081l-0.599-1.917L29.823,15.633z"/><path fill="#00BCD4" d="M30.422,17.55l-0.2-0.639l-0.399-1.278l1.966-0.685l0.599,1.917L30.422,17.55z M34.492,23.592l-1.972,0.672l0.3,0.958l0.3,0.958l1.972-0.672L34.492,23.592z"/></svg>